<svg xmlns="http://www.w3.org/2000/svg" width="540" height="396" viewBox="0 0 540 396"><rect width="540" height="396" fill="#ffffff"/><g fill="none" stroke="#1e293b" stroke-width="1.2"><line x1="186" y1="237" x2="186" y2="278"/><line x1="240" y1="237" x2="186" y2="237"/><line x1="270" y1="278" x2="186" y2="278"/></g><g fill="none" stroke="#1e293b" stroke-width="1.2"><line x1="390" y1="163" x2="390" y2="201"/><line x1="390" y1="201" x2="240" y2="201"/><line x1="240" y1="201" x2="240" y2="219"/></g><g fill="none" stroke="#1e293b" stroke-width="1.2"><line x1="390" y1="88" x2="390" y2="115"/><line x1="390" y1="115" x2="450" y2="115"/><line x1="450" y1="115" x2="450" y2="163"/></g><g><line x1="450" y1="76" x2="463" y2="76" stroke="#1e293b" stroke-width="1.2"/><text x="466" y="78.5" text-anchor="start" font-size="6.5" font-family="monospace" fill="#64748b">N04</text></g><g><line x1="240" y1="83" x2="227" y2="83" stroke="#1e293b" stroke-width="1.2"/><text x="224" y="85.5" text-anchor="end" font-size="6.5" font-family="monospace" fill="#64748b">N04</text></g><g><line x1="300" y1="153" x2="313" y2="153" stroke="#1e293b" stroke-width="1.2"/><text x="316" y="155.5" text-anchor="start" font-size="6.5" font-family="monospace" fill="#64748b">N04</text></g><g><line x1="450" y1="100" x2="463" y2="100" stroke="#1e293b" stroke-width="1.2"/><text x="466" y="102.5" text-anchor="start" font-size="6.5" font-family="monospace" fill="#64748b">GND</text></g><g><line x1="300" y1="219" x2="313" y2="219" stroke="#1e293b" stroke-width="1.2"/><text x="316" y="221.5" text-anchor="start" font-size="6.5" font-family="monospace" fill="#64748b">GND</text></g><g><line x1="390" y1="233" x2="377" y2="233" stroke="#1e293b" stroke-width="1.2"/><text x="374" y="235.5" text-anchor="end" font-size="6.5" font-family="monospace" fill="#64748b">GND</text></g><g><line x1="300" y1="308" x2="313" y2="308" stroke="#1e293b" stroke-width="1.2"/><text x="316" y="310.5" text-anchor="start" font-size="6.5" font-family="monospace" fill="#64748b">GND</text></g><g><line x1="90" y1="83" x2="77" y2="83" stroke="#1e293b" stroke-width="1.2"/><text x="74" y="85.5" text-anchor="end" font-size="6.5" font-family="monospace" fill="#64748b">VCC</text></g><g><line x1="300" y1="83" x2="313" y2="83" stroke="#1e293b" stroke-width="1.2"/><text x="316" y="85.5" text-anchor="start" font-size="6.5" font-family="monospace" fill="#64748b">VCC</text></g><g><line x1="240" y1="153" x2="227" y2="153" stroke="#1e293b" stroke-width="1.2"/><text x="224" y="155.5" text-anchor="end" font-size="6.5" font-family="monospace" fill="#64748b">VCC</text></g><g><line x1="300" y1="237" x2="313" y2="237" stroke="#1e293b" stroke-width="1.2"/><text x="316" y="239.5" text-anchor="start" font-size="6.5" font-family="monospace" fill="#64748b">VCC</text></g><g><line x1="240" y1="308" x2="227" y2="308" stroke="#1e293b" stroke-width="1.2"/><text x="224" y="310.5" text-anchor="end" font-size="6.5" font-family="monospace" fill="#64748b">VCC</text></g><g transform="translate(120 83)" stroke="#1e293b" stroke-width="1.6" fill="none" stroke-linecap="round"><path d="M -30 0 L 0 0 L 0 -10 M -6 -10 L 6 -10"/><text x="0" y="-24" text-anchor="middle" font-size="9" font-family="monospace" fill="#64748b" stroke="none">VCC</text></g><g transform="translate(420 233)" stroke="#1e293b" stroke-width="1.6" fill="none" stroke-linecap="round"><path d="M -30 0 L 0 0 L 0 8 M -9 8 L 9 8 M -6 12 L 6 12 M -3 16 L 3 16"/><text x="0" y="-24" text-anchor="middle" font-size="9" font-family="monospace" fill="#64748b" stroke="none">GND</text></g><g transform="translate(270 228)" stroke="#1e293b" stroke-width="1.6" fill="none" stroke-linecap="round"><rect x="-26" y="-25" width="52" height="50" rx="2"/><path d="M -26 -9 L -30 -9" stroke-width="1.2"/><text x="-22" y="-6.5" text-anchor="start" font-size="6.5" font-family="monospace" fill="#64748b" stroke="none">gp25</text><path d="M -26 9 L -30 9" stroke-width="1.2"/><text x="-22" y="11.5" text-anchor="start" font-size="6.5" font-family="monospace" fill="#64748b" stroke="none">gp26</text><path d="M 26 -9 L 30 -9" stroke-width="1.2"/><text x="22" y="-6.5" text-anchor="end" font-size="6.5" font-family="monospace" fill="#64748b" stroke="none">gnd_1</text><path d="M 26 9 L 30 9" stroke-width="1.2"/><text x="22" y="11.5" text-anchor="end" font-size="6.5" font-family="monospace" fill="#64748b" stroke="none">vbus</text><text x="0" y="-16" text-anchor="middle" font-size="7" font-family="monospace" fill="#1e293b" stroke="none">pi_pico</text><text x="0" y="-24" text-anchor="middle" font-size="9" font-family="monospace" fill="#64748b" stroke="none">pico1</text></g><g transform="translate(420 163)" stroke="#1e293b" stroke-width="1.6" fill="none" stroke-linecap="round"><path d="M -30 0 L -18 0 L -14 -7 L -6 7 L 2 -7 L 10 7 L 14 0 L 30 0"/><text x="0" y="19" text-anchor="middle" font-size="8" font-family="monospace" fill="#64748b" stroke="none">1kΩ</text><text x="0" y="-24" text-anchor="middle" font-size="9" font-family="monospace" fill="#64748b" stroke="none">R_motor_pwm</text></g><g transform="translate(420 88)" stroke="#1e293b" stroke-width="1.6" fill="none" stroke-linecap="round"><path d="M -30 0 L -6 0 M -6 -9 L -6 9"/><path d="M -6 -3 L 8 -10 L 30 -12 M -6 3 L 8 10 L 30 12"/><path d="M 3 5 L 8 10 L 2 11 Z" fill="#1e293b"/><circle cx="0" cy="0" r="13"/><text x="0" y="-24" text-anchor="middle" font-size="9" font-family="monospace" fill="#64748b" stroke="none">Q_motor_pwm</text></g><g transform="translate(270 153)" stroke="#1e293b" stroke-width="1.6" fill="none" stroke-linecap="round"><path d="M -30 0 L -13 0 M 13 0 L 30 0"/><circle cx="0" cy="0" r="13"/><text x="0" y="4" text-anchor="middle" font-size="11" font-family="monospace" fill="#1e293b" stroke="none">M</text><text x="0" y="-24" text-anchor="middle" font-size="9" font-family="monospace" fill="#64748b" stroke="none">MOTOR_motor_pwm</text></g><g transform="translate(270 83)" stroke="#1e293b" stroke-width="1.6" fill="none" stroke-linecap="round"><path d="M -30 0 L -8 0 M 8 0 L 30 0"/><path d="M -8 -8 L -8 8 L 8 0 Z"/><path d="M 8 -8 L 8 8"/><text x="0" y="-24" text-anchor="middle" font-size="9" font-family="monospace" fill="#64748b" stroke="none">D_motor_pwm</text></g><g transform="translate(270 308)" stroke="#1e293b" stroke-width="1.6" fill="none" stroke-linecap="round"><path d="M -30 0 L -18 0 L -14 -7 L -6 7 L 2 -7 L 10 7 L 14 0 L 30 0"/><path d="M 0 -30 L 0 -6 M -4 -10 L 0 -6 L 4 -10"/><text x="0" y="-24" text-anchor="middle" font-size="9" font-family="monospace" fill="#64748b" stroke="none">pot</text></g></svg>