<svg xmlns="http://www.w3.org/2000/svg" viewBox="0 0 220 260" width="220" height="260">
  <ellipse cx="110" cy="246" rx="66" ry="10" fill="#000000" opacity="0.12"/>
  <rect x="105" y="20" width="10" height="20" rx="3" fill="#0e9bb0"/>
  <circle cx="110" cy="16" r="9" fill="#ffc14d" stroke="#e0901a" stroke-width="2"/>
  <ellipse cx="82" cy="44" rx="12" ry="7" fill="#14b0c4" stroke="#0e9bb0" stroke-width="2"/>
  <ellipse cx="138" cy="44" rx="12" ry="7" fill="#14b0c4" stroke="#0e9bb0" stroke-width="2"/>
  <rect x="56" y="46" width="108" height="66" rx="12" fill="#14b0c4" stroke="#0b8497" stroke-width="2"/>
  <rect x="68" y="58" width="84" height="42" rx="9" fill="#0c3a44"/>
  <circle cx="90" cy="79" r="9" fill="#ffffff"/>
  <circle cx="130" cy="79" r="9" fill="#ffffff"/>
  <circle cx="92" cy="80" r="4.5" fill="#0c3a44"/>
  <circle cx="132" cy="80" r="4.5" fill="#0c3a44"/>
  <path d="M96 92 q14 10 28 0" fill="none" stroke="#ffc14d" stroke-width="3.5" stroke-linecap="round"/>
  <rect x="94" y="112" width="32" height="12" rx="3" fill="#37475a"/>
  <rect x="24" y="132" width="26" height="20" rx="6" fill="#f5a623" stroke="#c8871a" stroke-width="2"/>
  <rect x="24" y="156" width="26" height="26" rx="6" fill="#f5a623" stroke="#c8871a" stroke-width="2"/>
  <rect x="170" y="132" width="26" height="20" rx="6" fill="#f5a623" stroke="#c8871a" stroke-width="2"/>
  <rect x="170" y="156" width="26" height="26" rx="6" fill="#f5a623" stroke="#c8871a" stroke-width="2"/>
  <circle cx="37" cy="190" r="9" fill="#37475a" stroke="#2a3746" stroke-width="2"/>
  <circle cx="183" cy="190" r="9" fill="#37475a" stroke="#2a3746" stroke-width="2"/>
  <ellipse cx="80" cy="128" rx="11" ry="6.5" fill="#f5a623" stroke="#c8871a" stroke-width="2"/>
  <ellipse cx="110" cy="128" rx="11" ry="6.5" fill="#f5a623" stroke="#c8871a" stroke-width="2"/>
  <ellipse cx="140" cy="128" rx="11" ry="6.5" fill="#f5a623" stroke="#c8871a" stroke-width="2"/>
  <rect x="60" y="130" width="100" height="76" rx="12" fill="#f5a623" stroke="#c8871a" stroke-width="2"/>
  <rect x="74" y="146" width="72" height="44" rx="7" fill="#0c3a44"/>
  <polyline points="100,158 90,168 100,178" fill="none" stroke="#22c3d6" stroke-width="4" stroke-linecap="round" stroke-linejoin="round"/>
  <line x1="120" y1="156" x2="108" y2="180" stroke="#22c3d6" stroke-width="4" stroke-linecap="round"/>
  <polyline points="128,158 138,168 128,178" fill="none" stroke="#22c3d6" stroke-width="4" stroke-linecap="round" stroke-linejoin="round"/>
  <rect x="72" y="206" width="26" height="30" rx="6" fill="#14b0c4" stroke="#0b8497" stroke-width="2"/>
  <rect x="122" y="206" width="26" height="30" rx="6" fill="#14b0c4" stroke="#0b8497" stroke-width="2"/>
  <rect x="64" y="234" width="40" height="14" rx="5" fill="#37475a" stroke="#2a3746" stroke-width="2"/>
  <rect x="116" y="234" width="40" height="14" rx="5" fill="#37475a" stroke="#2a3746" stroke-width="2"/>
</svg>
